<svg width="32" height="32" viewBox="0 0 32 32" fill="none" xmlns="http://www.w3.org/2000/svg">
<g clip-path="url(#clip0_3797_31175)">
<path d="M26.6666 6.66667H22.44L20 4H12L9.55996 6.66667H5.33329C3.86663 6.66667 2.66663 7.86667 2.66663 9.33333V25.3333C2.66663 26.8 3.86663 28 5.33329 28H26.6666C28.1333 28 29.3333 26.8 29.3333 25.3333V9.33333C29.3333 7.86667 28.1333 6.66667 26.6666 6.66667ZM16 24C12.32 24 9.33329 21.0133 9.33329 17.3333H6.66663L9.99996 14L13.3333 17.3333H10.6666C10.6666 20.28 13.0533 22.6667 16 22.6667C16.7733 22.6667 17.5066 22.4933 18.16 22.2L19.1466 23.1867C18.2 23.68 17.1466 24 16 24ZM22 20.6667L18.6666 17.3333H21.3333C21.3333 14.3867 18.9466 12 16 12C15.2266 12 14.4933 12.1733 13.84 12.4667L12.8533 11.4933C13.8 10.9867 14.8533 10.6667 16 10.6667C19.68 10.6667 22.6666 13.6533 22.6666 17.3333H25.3333L22 20.6667Z" fill="#FBFBF8"/>
</g>
<defs>
<clipPath id="clip0_3797_31175">
<rect width="32" height="32" fill="white"/>
</clipPath>
</defs>
</svg>
