<svg width="32" height="32" viewBox="0 0 32 32" fill="none" xmlns="http://www.w3.org/2000/svg">
<g clip-path="url(#clip0_3797_31184)">
<path d="M26.6666 2.66675H5.33329C3.86663 2.66675 2.66663 3.86675 2.66663 5.33341V26.6667C2.66663 28.1334 3.86663 29.3334 5.33329 29.3334H26.6666C28.1333 29.3334 29.3333 28.1334 29.3333 26.6667V5.33341C29.3333 3.86675 28.1333 2.66675 26.6666 2.66675ZM10.6666 26.6667H5.33329V21.3334H10.6666V26.6667ZM10.6666 18.6667H5.33329V13.3334H10.6666V18.6667ZM10.6666 10.6667H5.33329V5.33341H10.6666V10.6667ZM18.6666 26.6667H13.3333V21.3334H18.6666V26.6667ZM18.6666 18.6667H13.3333V13.3334H18.6666V18.6667ZM18.6666 10.6667H13.3333V5.33341H18.6666V10.6667ZM26.6666 26.6667H21.3333V21.3334H26.6666V26.6667ZM26.6666 18.6667H21.3333V13.3334H26.6666V18.6667ZM26.6666 10.6667H21.3333V5.33341H26.6666V10.6667Z" fill="#FBFBF8"/>
</g>
<defs>
<clipPath id="clip0_3797_31184">
<rect width="32" height="32" fill="white"/>
</clipPath>
</defs>
</svg>
